<?xml version="1.0" standalone="no" ?>
<!DOCTYPE svg PUBLIC "-//W3C//DTD SVG 1.1//EN" "http://www.w3.org/Graphics/SVG/1.1/DTD/svg11.dtd">
<svg width="640px" height="480px" xmlns="http://www.w3.org/2000/svg" version="1.1" >
	<circle cx="629" cy="52" r="3.93701" fill="rgb(27,27,27)" />
	<circle cx="304" cy="9" r="4.80769" fill="rgb(4,4,4)" />
	<circle cx="50" cy="360" r="1.72414" fill="rgb(190,190,190)" />
	<circle cx="399" cy="145" r="2.84091" fill="rgb(76,76,76)" />
	<circle cx="444" cy="48" r="4.03226" fill="rgb(24,24,24)" />
	<circle cx="610" cy="219" r="2.32558" fill="rgb(115,115,115)" />
	<circle cx="249" cy="127" r="3.01205" fill="rgb(66,66,66)" />
	<circle cx="269" cy="332" r="1.81159" fill="rgb(176,176,176)" />
	<circle cx="27" cy="51" r="3.96825" fill="rgb(26,26,26)" />
	<circle cx="603" cy="146" r="2.82486" fill="rgb(77,77,77)" />
	<circle cx="557" cy="294" r="1.96078" fill="rgb(155,155,155)" />
	<circle cx="37" cy="36" r="4.23729" fill="rgb(18,18,18)" />
	<circle cx="353" cy="339" r="1.79211" fill="rgb(179,179,179)" />
	<circle cx="60" cy="113" r="3.14465" fill="rgb(59,59,59)" />
	<circle cx="373" cy="43" r="4.09836" fill="rgb(22,22,22)" />
	<circle cx="555" cy="112" r="3.14465" fill="rgb(59,59,59)" />
	<circle cx="13" cy="318" r="1.86567" fill="rgb(168,168,168)" />
	<circle cx="131" cy="25" r="4.46429" fill="rgb(12,12,12)" />
	<circle cx="58" cy="75" r="3.59712" fill="rgb(39,39,39)" />
	<circle cx="329" cy="104" r="3.24675" fill="rgb(54,54,54)" />
	<circle cx="8" cy="135" r="2.92398" fill="rgb(71,71,71)" />
	<circle cx="36" cy="302" r="1.92308" fill="rgb(160,160,160)" />
	<circle cx="335" cy="249" r="2.1645" fill="rgb(131,131,131)" />
	<circle cx="286" cy="10" r="4.80769" fill="rgb(4,4,4)" />
	<circle cx="221" cy="276" r="2.03252" fill="rgb(146,146,146)" />
	<circle cx="482" cy="46" r="4.06504" fill="rgb(23,23,23)" />
	<circle cx="199" cy="149" r="2.80899" fill="rgb(78,78,78)" />
	<circle cx="146" cy="167" r="2.65957" fill="rgb(88,88,88)" />
	<circle cx="419" cy="370" r="1.68919" fill="rgb(196,196,196)" />
	<circle cx="184" cy="11" r="4.7619" fill="rgb(5,5,5)" />
	<circle cx="343" cy="205" r="2.40385" fill="rgb(108,108,108)" />
	<circle cx="280" cy="159" r="2.73224" fill="rgb(83,83,83)" />
	<circle cx="77" cy="82" r="3.52113" fill="rgb(42,42,42)" />
	<circle cx="442" cy="222" r="2.30415" fill="rgb(117,117,117)" />
	<circle cx="451" cy="378" r="1.66667" fill="rgb(200,200,200)" />
	<circle cx="525" cy="8" r="4.85437" fill="rgb(3,3,3)" />
	<circle cx="502" cy="7" r="4.85437" fill="rgb(3,3,3)" />
	<circle cx="69" cy="389" r="1.63399" fill="rgb(206,206,206)" />
	<circle cx="11" cy="271" r="2.05761" fill="rgb(143,143,143)" />
	<circle cx="263" cy="111" r="3.16456" fill="rgb(58,58,58)" />
	<circle cx="352" cy="293" r="1.96078" fill="rgb(155,155,155)" />
	<circle cx="381" cy="396" r="1.6129" fill="rgb(210,210,210)" />
	<circle cx="430" cy="316" r="1.87266" fill="rgb(167,167,167)" />
	<circle cx="321" cy="7" r="4.85437" fill="rgb(3,3,3)" />
	<circle cx="540" cy="315" r="1.8797" fill="rgb(166,166,166)" />
	<circle cx="580" cy="109" r="3.18471" fill="rgb(57,57,57)" />
	<circle cx="172" cy="302" r="1.9305" fill="rgb(159,159,159)" />
	<circle cx="210" cy="110" r="3.18471" fill="rgb(57,57,57)" />
	<circle cx="346" cy="119" r="3.08642" fill="rgb(62,62,62)" />
	<circle cx="399" cy="166" r="2.6738" fill="rgb(87,87,87)" />
	<circle cx="231" cy="299" r="1.93798" fill="rgb(158,158,158)" />
	<circle cx="151" cy="36" r="4.23729" fill="rgb(18,18,18)" />
	<circle cx="77" cy="44" r="4.09836" fill="rgb(22,22,22)" />
	<circle cx="398" cy="203" r="2.41546" fill="rgb(107,107,107)" />
	<circle cx="237" cy="253" r="2.14592" fill="rgb(133,133,133)" />
	<circle cx="565" cy="227" r="2.28311" fill="rgb(119,119,119)" />
	<circle cx="74" cy="25" r="4.46429" fill="rgb(12,12,12)" />
	<circle cx="627" cy="141" r="2.87356" fill="rgb(74,74,74)" />
	<circle cx="100" cy="154" r="2.76243" fill="rgb(81,81,81)" />
	<circle cx="605" cy="244" r="2.18341" fill="rgb(129,129,129)" />
	<circle cx="409" cy="42" r="4.13223" fill="rgb(21,21,21)" />
	<circle cx="93" cy="65" r="3.7594" fill="rgb(33,33,33)" />
	<circle cx="355" cy="39" r="4.16667" fill="rgb(20,20,20)" />
	<circle cx="481" cy="211" r="2.36967" fill="rgb(111,111,111)" />
	<circle cx="421" cy="158" r="2.73224" fill="rgb(83,83,83)" />
	<circle cx="262" cy="400" r="1.60256" fill="rgb(212,212,212)" />
	<circle cx="565" cy="47" r="4.03226" fill="rgb(24,24,24)" />
	<circle cx="165" cy="83" r="3.4965" fill="rgb(43,43,43)" />
	<circle cx="207" cy="71" r="3.64964" fill="rgb(37,37,37)" />
	<circle cx="603" cy="99" r="3.31126" fill="rgb(51,51,51)" />
	<circle cx="78" cy="101" r="3.26797" fill="rgb(53,53,53)" />
	<circle cx="624" cy="371" r="1.68919" fill="rgb(196,196,196)" />
	<circle cx="418" cy="135" r="2.92398" fill="rgb(71,71,71)" />
	<circle cx="592" cy="23" r="4.5045" fill="rgb(11,11,11)" />
	<circle cx="110" cy="10" r="4.80769" fill="rgb(4,4,4)" />
	<circle cx="392" cy="103" r="3.24675" fill="rgb(54,54,54)" />
	<circle cx="319" cy="204" r="2.41546" fill="rgb(107,107,107)" />
	<circle cx="113" cy="52" r="3.96825" fill="rgb(26,26,26)" />
	<circle cx="88" cy="320" r="1.85874" fill="rgb(169,169,169)" />
	<circle cx="63" cy="194" r="2.47525" fill="rgb(102,102,102)" />
	<circle cx="251" cy="75" r="3.59712" fill="rgb(39,39,39)" />
	<circle cx="34" cy="253" r="2.14592" fill="rgb(133,133,133)" />
	<circle cx="232" cy="111" r="3.16456" fill="rgb(58,58,58)" />
	<circle cx="187" cy="71" r="3.64964" fill="rgb(37,37,37)" />
	<circle cx="285" cy="52" r="3.93701" fill="rgb(27,27,27)" />
	<circle cx="567" cy="26" r="4.42478" fill="rgb(13,13,13)" />
	<circle cx="535" cy="368" r="1.69492" fill="rgb(195,195,195)" />
	<circle cx="187" cy="109" r="3.18471" fill="rgb(57,57,57)" />
	<circle cx="394" cy="80" r="3.5461" fill="rgb(41,41,41)" />
	<circle cx="168" cy="7" r="4.85437" fill="rgb(3,3,3)" />
	<circle cx="310" cy="224" r="2.29358" fill="rgb(118,118,118)" />
	<circle cx="229" cy="73" r="3.62319" fill="rgb(38,38,38)" />
	<circle cx="458" cy="104" r="3.24675" fill="rgb(54,54,54)" />
	<circle cx="219" cy="54" r="3.93701" fill="rgb(27,27,27)" />
	<circle cx="629" cy="209" r="2.38095" fill="rgb(110,110,110)" />
	<circle cx="360" cy="161" r="2.71739" fill="rgb(84,84,84)" />
	<circle cx="437" cy="113" r="3.14465" fill="rgb(59,59,59)" />
	<circle cx="386" cy="22" r="4.5045" fill="rgb(11,11,11)" />
	<circle cx="124" cy="169" r="2.6455" fill="rgb(89,89,89)" />
	<circle cx="598" cy="196" r="2.46305" fill="rgb(103,103,103)" />
	<circle cx="329" cy="142" r="2.87356" fill="rgb(74,74,74)" />
	<circle cx="602" cy="268" r="2.06612" fill="rgb(142,142,142)" />
	<circle cx="600" cy="345" r="1.77305" fill="rgb(182,182,182)" />
	<circle cx="106" cy="269" r="2.06612" fill="rgb(142,142,142)" />
	<circle cx="512" cy="309" r="1.90114" fill="rgb(163,163,163)" />
	<circle cx="25" cy="147" r="2.82486" fill="rgb(77,77,77)" />
	<circle cx="248" cy="278" r="2.02429" fill="rgb(147,147,147)" />
	<circle cx="312" cy="247" r="2.17391" fill="rgb(130,130,130)" />
	<circle cx="177" cy="148" r="2.82486" fill="rgb(77,77,77)" />
	<circle cx="241" cy="344" r="1.77305" fill="rgb(182,182,182)" />
	<circle cx="142" cy="103" r="3.24675" fill="rgb(54,54,54)" />
	<circle cx="45" cy="332" r="1.81818" fill="rgb(175,175,175)" />
	<circle cx="402" cy="226" r="2.28311" fill="rgb(119,119,119)" />
	<circle cx="446" cy="7" r="4.85437" fill="rgb(3,3,3)" />
	<circle cx="63" cy="155" r="2.76243" fill="rgb(81,81,81)" />
	<circle cx="528" cy="87" r="3.44828" fill="rgb(45,45,45)" />
	<circle cx="187" cy="233" r="2.24215" fill="rgb(123,123,123)" />
	<circle cx="585" cy="74" r="3.62319" fill="rgb(38,38,38)" />
	<circle cx="137" cy="190" r="2.5" fill="rgb(100,100,100)" />
	<circle cx="270" cy="362" r="1.71233" fill="rgb(192,192,192)" />
	<circle cx="531" cy="151" r="2.7933" fill="rgb(79,79,79)" />
	<circle cx="436" cy="92" r="3.37838" fill="rgb(48,48,48)" />
	<circle cx="233" cy="191" r="2.5" fill="rgb(100,100,100)" />
	<circle cx="22" cy="398" r="1.60772" fill="rgb(211,211,211)" />
	<circle cx="525" cy="49" r="4" fill="rgb(25,25,25)" />
	<circle cx="463" cy="194" r="2.47525" fill="rgb(102,102,102)" />
	<circle cx="367" cy="203" r="2.41546" fill="rgb(107,107,107)" />
	<circle cx="582" cy="293" r="1.96078" fill="rgb(155,155,155)" />
	<circle cx="441" cy="134" r="2.94118" fill="rgb(70,70,70)" />
	<circle cx="32" cy="20" r="4.54545" fill="rgb(10,10,10)" />
	<circle cx="181" cy="328" r="1.8315" fill="rgb(173,173,173)" />
	<circle cx="401" cy="270" r="2.06612" fill="rgb(142,142,142)" />
	<circle cx="402" cy="293" r="1.96078" fill="rgb(155,155,155)" />
	<circle cx="580" cy="247" r="2.17391" fill="rgb(130,130,130)" />
	<circle cx="586" cy="38" r="4.20168" fill="rgb(19,19,19)" />
	<circle cx="302" cy="123" r="3.04878" fill="rgb(64,64,64)" />
	<circle cx="117" cy="347" r="1.76678" fill="rgb(183,183,183)" />
	<circle cx="528" cy="265" r="2.08333" fill="rgb(140,140,140)" />
	<circle cx="186" cy="209" r="2.38095" fill="rgb(110,110,110)" />
	<circle cx="459" cy="83" r="3.4965" fill="rgb(43,43,43)" />
	<circle cx="91" cy="219" r="2.31481" fill="rgb(116,116,116)" />
	<circle cx="425" cy="53" r="3.93701" fill="rgb(27,27,27)" />
	<circle cx="352" cy="20" r="4.54545" fill="rgb(10,10,10)" />
	<circle cx="542" cy="223" r="2.29358" fill="rgb(118,118,118)" />
	<circle cx="156" cy="145" r="2.84091" fill="rgb(76,76,76)" />
	<circle cx="169" cy="24" r="4.46429" fill="rgb(12,12,12)" />
	<circle cx="513" cy="20" r="4.54545" fill="rgb(10,10,10)" />
	<circle cx="369" cy="62" r="3.78788" fill="rgb(32,32,32)" />
	<circle cx="209" cy="192" r="2.48756" fill="rgb(101,101,101)" />
	<circle cx="275" cy="283" r="2.00803" fill="rgb(149,149,149)" />
	<circle cx="45" cy="232" r="2.25225" fill="rgb(122,122,122)" />
	<circle cx="44" cy="146" r="2.84091" fill="rgb(76,76,76)" />
	<circle cx="413" cy="93" r="3.37838" fill="rgb(48,48,48)" />
	<circle cx="87" cy="195" r="2.46305" fill="rgb(103,103,103)" />
	<circle cx="192" cy="278" r="2.03252" fill="rgb(146,146,146)" />
	<circle cx="369" cy="119" r="3.08642" fill="rgb(62,62,62)" />
	<circle cx="299" cy="378" r="1.66667" fill="rgb(200,200,200)" />
	<circle cx="627" cy="164" r="2.68817" fill="rgb(86,86,86)" />
	<circle cx="41" cy="79" r="3.5461" fill="rgb(41,41,41)" />
	<circle cx="70" cy="61" r="3.81679" fill="rgb(31,31,31)" />
	<circle cx="323" cy="123" r="3.04878" fill="rgb(64,64,64)" />
	<circle cx="580" cy="147" r="2.82486" fill="rgb(77,77,77)" />
	<circle cx="323" cy="270" r="2.05761" fill="rgb(143,143,143)" />
	<circle cx="9" cy="53" r="3.93701" fill="rgb(27,27,27)" />
	<circle cx="628" cy="284" r="2" fill="rgb(150,150,150)" />
	<circle cx="463" cy="58" r="3.84615" fill="rgb(30,30,30)" />
	<circle cx="544" cy="340" r="1.78571" fill="rgb(180,180,180)" />
	<circle cx="99" cy="84" r="3.4965" fill="rgb(43,43,43)" />
	<circle cx="168" cy="62" r="3.78788" fill="rgb(32,32,32)" />
	<circle cx="376" cy="140" r="2.89017" fill="rgb(73,73,73)" />
	<circle cx="81" cy="347" r="1.76056" fill="rgb(184,184,184)" />
	<circle cx="627" cy="95" r="3.3557" fill="rgb(49,49,49)" />
	<circle cx="116" cy="146" r="2.84091" fill="rgb(76,76,76)" />
	<circle cx="25" cy="70" r="3.67647" fill="rgb(36,36,36)" />
	<circle cx="8" cy="95" r="3.3557" fill="rgb(49,49,49)" />
	<circle cx="563" cy="8" r="4.85437" fill="rgb(3,3,3)" />
	<circle cx="562" cy="400" r="1.60256" fill="rgb(212,212,212)" />
	<circle cx="509" cy="116" r="3.125" fill="rgb(60,60,60)" />
	<circle cx="94" cy="27" r="4.42478" fill="rgb(13,13,13)" />
	<circle cx="179" cy="256" r="2.12766" fill="rgb(135,135,135)" />
	<circle cx="26" cy="230" r="2.26244" fill="rgb(121,121,121)" />
	<circle cx="449" cy="268" r="2.06612" fill="rgb(142,142,142)" />
	<circle cx="177" cy="360" r="1.71821" fill="rgb(191,191,191)" />
	<circle cx="349" cy="316" r="1.87266" fill="rgb(167,167,167)" />
	<circle cx="338" cy="51" r="3.96825" fill="rgb(26,26,26)" />
	<circle cx="547" cy="201" r="2.42718" fill="rgb(106,106,106)" />
	<circle cx="331" cy="21" r="4.54545" fill="rgb(10,10,10)" />
	<circle cx="379" cy="443" r="1.47059" fill="rgb(240,240,240)" />
	<circle cx="627" cy="260" r="2.1097" fill="rgb(137,137,137)" />
	<circle cx="428" cy="342" r="1.77936" fill="rgb(181,181,181)" />
	<circle cx="576" cy="166" r="2.6738" fill="rgb(87,87,87)" />
	<circle cx="136" cy="147" r="2.82486" fill="rgb(77,77,77)" />
	<circle cx="404" cy="340" r="1.78571" fill="rgb(180,180,180)" />
	<circle cx="373" cy="98" r="3.31126" fill="rgb(51,51,51)" />
	<circle cx="534" cy="129" r="2.99401" fill="rgb(67,67,67)" />
	<circle cx="233" cy="36" r="4.23729" fill="rgb(18,18,18)" />
	<circle cx="504" cy="206" r="2.40385" fill="rgb(108,108,108)" />
	<circle cx="150" cy="346" r="1.76678" fill="rgb(183,183,183)" />
	<circle cx="64" cy="134" r="2.94118" fill="rgb(70,70,70)" />
	<circle cx="160" cy="233" r="2.24215" fill="rgb(123,123,123)" />
	<circle cx="283" cy="111" r="3.16456" fill="rgb(58,58,58)" />
	<circle cx="481" cy="8" r="4.85437" fill="rgb(3,3,3)" />
	<circle cx="394" cy="124" r="3.0303" fill="rgb(65,65,65)" />
	<circle cx="380" cy="243" r="2.19298" fill="rgb(128,128,128)" />
	<circle cx="251" cy="31" r="4.34783" fill="rgb(15,15,15)" />
	<circle cx="25" cy="91" r="3.40136" fill="rgb(47,47,47)" />
	<circle cx="11" cy="114" r="3.14465" fill="rgb(59,59,59)" />
	<circle cx="96" cy="46" r="4.06504" fill="rgb(23,23,23)" />
	<circle cx="516" cy="400" r="1.60256" fill="rgb(212,212,212)" />
	<circle cx="607" cy="53" r="3.93701" fill="rgb(27,27,27)" />
	<circle cx="108" cy="243" r="2.19298" fill="rgb(128,128,128)" />
	<circle cx="508" cy="181" r="2.5641" fill="rgb(95,95,95)" />
	<circle cx="508" cy="364" r="1.70648" fill="rgb(193,193,193)" />
	<circle cx="297" cy="173" r="2.6178" fill="rgb(91,91,91)" />
	<circle cx="470" cy="273" r="2.04918" fill="rgb(144,144,144)" />
	<circle cx="295" cy="198" r="2.45098" fill="rgb(104,104,104)" />
	<circle cx="426" cy="291" r="1.97628" fill="rgb(153,153,153)" />
	<circle cx="630" cy="31" r="4.34783" fill="rgb(15,15,15)" />
	<circle cx="16" cy="367" r="1.70068" fill="rgb(194,194,194)" />
	<circle cx="385" cy="185" r="2.53807" fill="rgb(97,97,97)" />
	<circle cx="63" cy="241" r="2.20264" fill="rgb(127,127,127)" />
	<circle cx="531" cy="108" r="3.20513" fill="rgb(56,56,56)" />
	<circle cx="8" cy="74" r="3.62319" fill="rgb(38,38,38)" />
	<circle cx="576" cy="91" r="3.40136" fill="rgb(47,47,47)" />
	<circle cx="163" cy="279" r="2.02429" fill="rgb(147,147,147)" />
	<circle cx="13" cy="179" r="2.57732" fill="rgb(94,94,94)" />
	<circle cx="151" cy="124" r="3.0303" fill="rgb(65,65,65)" />
	<circle cx="300" cy="100" r="3.28947" fill="rgb(52,52,52)" />
	<circle cx="454" cy="348" r="1.76056" fill="rgb(184,184,184)" />
	<circle cx="509" cy="277" r="2.03252" fill="rgb(146,146,146)" />
	<circle cx="573" cy="341" r="1.78571" fill="rgb(180,180,180)" />
	<circle cx="298" cy="343" r="1.77936" fill="rgb(181,181,181)" />
	<circle cx="167" cy="168" r="2.65957" fill="rgb(88,88,88)" />
	<circle cx="388" cy="58" r="3.84615" fill="rgb(30,30,30)" />
	<circle cx="582" cy="8" r="4.85437" fill="rgb(3,3,3)" />
	<circle cx="262" cy="304" r="1.92308" fill="rgb(160,160,160)" />
	<circle cx="471" cy="296" r="1.95312" fill="rgb(156,156,156)" />
	<circle cx="291" cy="313" r="1.88679" fill="rgb(165,165,165)" />
	<circle cx="242" cy="321" r="1.85874" fill="rgb(169,169,169)" />
	<circle cx="209" cy="346" r="1.76678" fill="rgb(183,183,183)" />
	<circle cx="319" cy="163" r="2.7027" fill="rgb(85,85,85)" />
	<circle cx="337" cy="7" r="4.85437" fill="rgb(3,3,3)" />
	<circle cx="352" cy="270" r="2.06612" fill="rgb(142,142,142)" />
	<circle cx="28" cy="207" r="2.39234" fill="rgb(109,109,109)" />
	<circle cx="229" cy="212" r="2.36967" fill="rgb(111,111,111)" />
	<circle cx="577" cy="128" r="2.99401" fill="rgb(67,67,67)" />
	<circle cx="629" cy="236" r="2.23214" fill="rgb(124,124,124)" />
	<circle cx="288" cy="245" r="2.18341" fill="rgb(129,129,129)" />
	<circle cx="129" cy="255" r="2.13675" fill="rgb(134,134,134)" />
	<circle cx="318" cy="184" r="2.53807" fill="rgb(97,97,97)" />
	<circle cx="334" cy="83" r="3.4965" fill="rgb(43,43,43)" />
	<circle cx="327" cy="62" r="3.78788" fill="rgb(32,32,32)" />
	<circle cx="118" cy="416" r="1.55763" fill="rgb(221,221,221)" />
	<circle cx="214" cy="321" r="1.85185" fill="rgb(170,170,170)" />
	<circle cx="8" cy="223" r="2.30415" fill="rgb(117,117,117)" />
	<circle cx="174" cy="127" r="3.01205" fill="rgb(66,66,66)" />
	<circle cx="556" cy="135" r="2.92398" fill="rgb(71,71,71)" />
	<circle cx="363" cy="182" r="2.55102" fill="rgb(96,96,96)" />
	<circle cx="172" cy="398" r="1.60772" fill="rgb(211,211,211)" />
	<circle cx="350" cy="74" r="3.62319" fill="rgb(38,38,38)" />
	<circle cx="358" cy="224" r="2.29358" fill="rgb(118,118,118)" />
	<circle cx="85" cy="244" r="2.18341" fill="rgb(129,129,129)" />
	<circle cx="89" cy="8" r="4.85437" fill="rgb(3,3,3)" />
	<circle cx="48" cy="7" r="4.85437" fill="rgb(3,3,3)" />
	<circle cx="129" cy="126" r="3.01205" fill="rgb(66,66,66)" />
	<circle cx="626" cy="338" r="1.79211" fill="rgb(179,179,179)" />
	<circle cx="551" cy="445" r="1.47059" fill="rgb(240,240,240)" />
	<circle cx="11" cy="294" r="1.96078" fill="rgb(155,155,155)" />
	<circle cx="54" cy="24" r="4.46429" fill="rgb(12,12,12)" />
	<circle cx="352" cy="6" r="4.90196" fill="rgb(2,2,2)" />
	<circle cx="602" cy="122" r="3.04878" fill="rgb(64,64,64)" />
	<circle cx="113" cy="31" r="4.34783" fill="rgb(15,15,15)" />
	<circle cx="59" cy="174" r="2.6178" fill="rgb(91,91,91)" />
	<circle cx="552" cy="271" r="2.05761" fill="rgb(143,143,143)" />
	<circle cx="443" cy="69" r="3.67647" fill="rgb(36,36,36)" />
	<circle cx="11" cy="32" r="4.31034" fill="rgb(16,16,16)" />
	<circle cx="605" cy="76" r="3.59712" fill="rgb(39,39,39)" />
	<circle cx="275" cy="90" r="3.40136" fill="rgb(47,47,47)" />
	<circle cx="37" cy="167" r="2.65957" fill="rgb(88,88,88)" />
	<circle cx="353" cy="140" r="2.89017" fill="rgb(73,73,73)" />
	<circle cx="485" cy="173" r="2.6178" fill="rgb(91,91,91)" />
	<circle cx="278" cy="132" r="2.95858" fill="rgb(69,69,69)" />
	<circle cx="482" cy="345" r="1.76678" fill="rgb(183,183,183)" />
	<circle cx="25" cy="7" r="4.85437" fill="rgb(3,3,3)" />
	<circle cx="264" cy="147" r="2.82486" fill="rgb(77,77,77)" />
	<circle cx="553" cy="248" r="2.1645" fill="rgb(131,131,131)" />
	<circle cx="113" cy="196" r="2.46305" fill="rgb(103,103,103)" />
	<circle cx="442" cy="199" r="2.43902" fill="rgb(105,105,105)" />
	<circle cx="421" cy="74" r="3.62319" fill="rgb(38,38,38)" />
	<circle cx="614" cy="412" r="1.5674" fill="rgb(219,219,219)" />
	<circle cx="442" cy="155" r="2.76243" fill="rgb(81,81,81)" />
	<circle cx="339" cy="34" r="4.2735" fill="rgb(17,17,17)" />
	<circle cx="270" cy="209" r="2.38095" fill="rgb(110,110,110)" />
	<circle cx="564" cy="367" r="1.70068" fill="rgb(194,194,194)" />
	<circle cx="302" cy="146" r="2.84091" fill="rgb(76,76,76)" />
	<circle cx="102" cy="175" r="2.60417" fill="rgb(92,92,92)" />
	<circle cx="379" cy="162" r="2.7027" fill="rgb(85,85,85)" />
	<circle cx="341" cy="163" r="2.7027" fill="rgb(85,85,85)" />
	<circle cx="46" cy="58" r="3.84615" fill="rgb(30,30,30)" />
	<circle cx="503" cy="250" r="2.15517" fill="rgb(132,132,132)" />
	<circle cx="553" cy="91" r="3.40136" fill="rgb(47,47,47)" />
	<circle cx="69" cy="218" r="2.32558" fill="rgb(115,115,115)" />
	<circle cx="222" cy="150" r="2.80899" fill="rgb(78,78,78)" />
	<circle cx="497" cy="59" r="3.84615" fill="rgb(30,30,30)" />
	<circle cx="293" cy="75" r="3.59712" fill="rgb(39,39,39)" />
	<circle cx="415" cy="114" r="3.14465" fill="rgb(59,59,59)" />
	<circle cx="243" cy="228" r="2.27273" fill="rgb(120,120,120)" />
	<circle cx="289" cy="221" r="2.31481" fill="rgb(116,116,116)" />
	<circle cx="81" cy="170" r="2.6455" fill="rgb(89,89,89)" />
	<circle cx="517" cy="66" r="3.73134" fill="rgb(34,34,34)" />
	<circle cx="479" cy="71" r="3.64964" fill="rgb(37,37,37)" />
	<circle cx="485" cy="319" r="1.85874" fill="rgb(169,169,169)" />
	<circle cx="164" cy="210" r="2.36967" fill="rgb(111,111,111)" />
	<circle cx="428" cy="10" r="4.80769" fill="rgb(4,4,4)" />
	<circle cx="252" cy="199" r="2.43902" fill="rgb(105,105,105)" />
	<circle cx="463" cy="146" r="2.82486" fill="rgb(77,77,77)" />
	<circle cx="207" cy="214" r="2.34742" fill="rgb(113,113,113)" />
	<circle cx="132" cy="46" r="4.06504" fill="rgb(23,23,23)" />
	<circle cx="422" cy="405" r="1.5873" fill="rgb(215,215,215)" />
	<circle cx="142" cy="376" r="1.67224" fill="rgb(199,199,199)" />
	<circle cx="553" cy="156" r="2.74725" fill="rgb(82,82,82)" />
	<circle cx="410" cy="7" r="4.85437" fill="rgb(3,3,3)" />
	<circle cx="369" cy="25" r="4.46429" fill="rgb(12,12,12)" />
	<circle cx="274" cy="184" r="2.53807" fill="rgb(97,97,97)" />
	<circle cx="444" cy="25" r="4.42478" fill="rgb(13,13,13)" />
	<circle cx="628" cy="73" r="3.62319" fill="rgb(38,38,38)" />
	<circle cx="328" cy="367" r="1.70068" fill="rgb(194,194,194)" />
	<circle cx="213" cy="171" r="2.63158" fill="rgb(90,90,90)" />
	<circle cx="495" cy="25" r="4.46429" fill="rgb(12,12,12)" />
	<circle cx="83" cy="145" r="2.84091" fill="rgb(76,76,76)" />
	<circle cx="546" cy="51" r="3.96825" fill="rgb(26,26,26)" />
	<circle cx="506" cy="96" r="3.33333" fill="rgb(50,50,50)" />
	<circle cx="379" cy="336" r="1.79856" fill="rgb(178,178,178)" />
	<circle cx="57" cy="94" r="3.3557" fill="rgb(49,49,49)" />
	<circle cx="321" cy="41" r="4.13223" fill="rgb(21,21,21)" />
	<circle cx="256" cy="172" r="2.63158" fill="rgb(90,90,90)" />
	<circle cx="476" cy="27" r="4.42478" fill="rgb(13,13,13)" />
	<circle cx="506" cy="158" r="2.73224" fill="rgb(83,83,83)" />
	<circle cx="143" cy="82" r="3.52113" fill="rgb(42,42,42)" />
	<circle cx="68" cy="8" r="4.85437" fill="rgb(3,3,3)" />
	<circle cx="377" cy="289" r="1.98413" fill="rgb(152,152,152)" />
	<circle cx="81" cy="122" r="3.04878" fill="rgb(64,64,64)" />
	<circle cx="209" cy="90" r="3.40136" fill="rgb(47,47,47)" />
	<circle cx="293" cy="31" r="4.31034" fill="rgb(16,16,16)" />
	<circle cx="121" cy="86" r="3.44828" fill="rgb(45,45,45)" />
	<circle cx="84" cy="293" r="1.96078" fill="rgb(155,155,155)" />
	<circle cx="489" cy="269" r="2.06612" fill="rgb(142,142,142)" />
	<circle cx="585" cy="55" r="3.90625" fill="rgb(28,28,28)" />
	<circle cx="600" cy="171" r="2.63158" fill="rgb(90,90,90)" />
	<circle cx="38" cy="105" r="3.22581" fill="rgb(55,55,55)" />
	<circle cx="627" cy="310" r="1.89394" fill="rgb(164,164,164)" />
	<circle cx="8" cy="11" r="4.7619" fill="rgb(5,5,5)" />
	<circle cx="184" cy="188" r="2.51256" fill="rgb(99,99,99)" />
	<circle cx="426" cy="244" r="2.18341" fill="rgb(129,129,129)" />
	<circle cx="593" cy="375" r="1.67224" fill="rgb(199,199,199)" />
	<circle cx="426" cy="267" r="2.07469" fill="rgb(141,141,141)" />
	<circle cx="341" cy="184" r="2.53807" fill="rgb(97,97,97)" />
	<circle cx="199" cy="129" r="2.99401" fill="rgb(67,67,67)" />
	<circle cx="528" cy="244" r="2.18341" fill="rgb(129,129,129)" />
	<circle cx="216" cy="235" r="2.23214" fill="rgb(124,124,124)" />
	<circle cx="372" cy="79" r="3.5461" fill="rgb(41,41,41)" />
	<circle cx="9" cy="200" r="2.43902" fill="rgb(105,105,105)" />
	<circle cx="48" cy="211" r="2.36967" fill="rgb(111,111,111)" />
	<circle cx="462" cy="171" r="2.63158" fill="rgb(90,90,90)" />
	<circle cx="493" cy="294" r="1.96078" fill="rgb(155,155,155)" />
	<circle cx="392" cy="38" r="4.20168" fill="rgb(19,19,19)" />
	<circle cx="99" cy="105" r="3.22581" fill="rgb(55,55,55)" />
	<circle cx="139" cy="211" r="2.36967" fill="rgb(111,111,111)" />
	<circle cx="62" cy="313" r="1.8797" fill="rgb(166,166,166)" />
	<circle cx="570" cy="316" r="1.87266" fill="rgb(167,167,167)" />
	<circle cx="16" cy="341" r="1.78571" fill="rgb(180,180,180)" />
	<circle cx="243" cy="54" r="3.90625" fill="rgb(28,28,28)" />
	<circle cx="122" cy="67" r="3.7037" fill="rgb(35,35,35)" />
	<circle cx="57" cy="263" r="2.09205" fill="rgb(139,139,139)" />
	<circle cx="378" cy="312" r="1.88679" fill="rgb(165,165,165)" />
	<circle cx="606" cy="9" r="4.80769" fill="rgb(4,4,4)" />
	<circle cx="327" cy="293" r="1.9685" fill="rgb(154,154,154)" />
	<circle cx="193" cy="52" r="3.96825" fill="rgb(26,26,26)" />
	<circle cx="482" cy="153" r="2.77778" fill="rgb(80,80,80)" />
	<circle cx="221" cy="6" r="4.90196" fill="rgb(2,2,2)" />
	<circle cx="192" cy="446" r="1.46628" fill="rgb(241,241,241)" />
	<circle cx="230" cy="92" r="3.37838" fill="rgb(48,48,48)" />
	<circle cx="171" cy="43" r="4.09836" fill="rgb(22,22,22)" />
	<circle cx="10" cy="248" r="2.1645" fill="rgb(131,131,131)" />
	<circle cx="599" cy="317" r="1.86567" fill="rgb(168,168,168)" />
	<circle cx="271" cy="69" r="3.67647" fill="rgb(36,36,36)" />
	<circle cx="353" cy="56" r="3.87597" fill="rgb(29,29,29)" />
	<circle cx="546" cy="30" r="4.34783" fill="rgb(15,15,15)" />
	<circle cx="357" cy="247" r="2.17391" fill="rgb(130,130,130)" />
	<circle cx="414" cy="181" r="2.5641" fill="rgb(95,95,95)" />
	<circle cx="540" cy="70" r="3.67647" fill="rgb(36,36,36)" />
	<circle cx="625" cy="187" r="2.52525" fill="rgb(98,98,98)" />
	<circle cx="610" cy="32" r="4.31034" fill="rgb(16,16,16)" />
	<circle cx="407" cy="23" r="4.5045" fill="rgb(11,11,11)" />
	<circle cx="463" cy="125" r="3.0303" fill="rgb(65,65,65)" />
	<circle cx="563" cy="70" r="3.67647" fill="rgb(36,36,36)" />
	<circle cx="239" cy="370" r="1.68919" fill="rgb(196,196,196)" />
	<circle cx="378" cy="266" r="2.08333" fill="rgb(140,140,140)" />
	<circle cx="487" cy="192" r="2.48756" fill="rgb(101,101,101)" />
	<circle cx="627" cy="118" r="3.08642" fill="rgb(62,62,62)" />
	<circle cx="326" cy="339" r="1.79211" fill="rgb(179,179,179)" />
	<circle cx="201" cy="6" r="4.90196" fill="rgb(2,2,2)" />
	<circle cx="153" cy="256" r="2.12766" fill="rgb(135,135,135)" />
	<circle cx="316" cy="91" r="3.40136" fill="rgb(47,47,47)" />
	<circle cx="46" cy="126" r="3.01205" fill="rgb(66,66,66)" />
	<circle cx="427" cy="31" r="4.34783" fill="rgb(15,15,15)" />
	<circle cx="224" cy="130" r="2.97619" fill="rgb(68,68,68)" />
	<circle cx="160" cy="189" r="2.51256" fill="rgb(99,99,99)" />
	<circle cx="461" cy="35" r="4.23729" fill="rgb(18,18,18)" />
	<circle cx="474" cy="248" r="2.1645" fill="rgb(131,131,131)" />
	<circle cx="531" cy="290" r="1.97628" fill="rgb(153,153,153)" />
	<circle cx="222" cy="405" r="1.5873" fill="rgb(215,215,215)" />
	<circle cx="506" cy="40" r="4.16667" fill="rgb(20,20,20)" />
	<circle cx="449" cy="293" r="1.96078" fill="rgb(155,155,155)" />
	<circle cx="388" cy="364" r="1.70648" fill="rgb(193,193,193)" />
	<circle cx="189" cy="32" r="4.31034" fill="rgb(16,16,16)" />
	<circle cx="421" cy="200" r="2.43902" fill="rgb(105,105,105)" />
	<circle cx="81" cy="269" r="2.06612" fill="rgb(142,142,142)" />
	<circle cx="103" cy="127" r="3.01205" fill="rgb(66,66,66)" />
	<circle cx="264" cy="50" r="3.96825" fill="rgb(26,26,26)" />
	<circle cx="34" cy="276" r="2.03252" fill="rgb(146,146,146)" />
	<circle cx="201" cy="300" r="1.93798" fill="rgb(158,158,158)" />
	<circle cx="606" cy="293" r="1.96078" fill="rgb(155,155,155)" />
	<circle cx="265" cy="258" r="2.11864" fill="rgb(136,136,136)" />
	<circle cx="391" cy="7" r="4.85437" fill="rgb(3,3,3)" />
	<circle cx="549" cy="179" r="2.57732" fill="rgb(94,94,94)" />
	<circle cx="320" cy="316" r="1.87266" fill="rgb(167,167,167)" />
	<circle cx="421" cy="221" r="2.30415" fill="rgb(117,117,117)" />
	<circle cx="405" cy="316" r="1.87266" fill="rgb(167,167,167)" />
	<circle cx="148" cy="321" r="1.85874" fill="rgb(169,169,169)" />
	<circle cx="235" cy="170" r="2.6455" fill="rgb(89,89,89)" />
	<circle cx="406" cy="61" r="3.81679" fill="rgb(31,31,31)" />
	<circle cx="37" cy="188" r="2.51256" fill="rgb(99,99,99)" />
	<circle cx="334" cy="226" r="2.28311" fill="rgb(119,119,119)" />
	<circle cx="482" cy="379" r="1.66113" fill="rgb(201,201,201)" />
	<circle cx="244" cy="149" r="2.80899" fill="rgb(78,78,78)" />
	<circle cx="449" cy="245" r="2.18341" fill="rgb(129,129,129)" />
	<circle cx="339" cy="400" r="1.60256" fill="rgb(212,212,212)" />
	<circle cx="570" cy="205" r="2.40385" fill="rgb(108,108,108)" />
	<circle cx="187" cy="90" r="3.40136" fill="rgb(47,47,47)" />
	<circle cx="352" cy="97" r="3.33333" fill="rgb(50,50,50)" />
	<circle cx="120" cy="107" r="3.20513" fill="rgb(56,56,56)" />
	<circle cx="403" cy="247" r="2.17391" fill="rgb(130,130,130)" />
	<circle cx="577" cy="270" r="2.06612" fill="rgb(142,142,142)" />
	<circle cx="311" cy="26" r="4.42478" fill="rgb(13,13,13)" />
	<circle cx="512" cy="137" r="2.90698" fill="rgb(72,72,72)" />
	<circle cx="544" cy="10" r="4.80769" fill="rgb(4,4,4)" />
	<circle cx="493" cy="229" r="2.26244" fill="rgb(121,121,121)" />
	<circle cx="370" cy="8" r="4.85437" fill="rgb(3,3,3)" />
	<circle cx="58" cy="42" r="4.13223" fill="rgb(21,21,21)" />
	<circle cx="313" cy="72" r="3.64964" fill="rgb(37,37,37)" />
	<circle cx="58" cy="288" r="1.98413" fill="rgb(152,152,152)" />
	<circle cx="131" cy="7" r="4.85437" fill="rgb(3,3,3)" />
	<circle cx="439" cy="177" r="2.59067" fill="rgb(93,93,93)" />
	<circle cx="117" cy="321" r="1.85874" fill="rgb(169,169,169)" />
	<circle cx="224" cy="21" r="4.54545" fill="rgb(10,10,10)" />
	<circle cx="28" cy="126" r="3.01205" fill="rgb(66,66,66)" />
	<circle cx="526" cy="197" r="2.45098" fill="rgb(104,104,104)" />
	<circle cx="10" cy="158" r="2.73224" fill="rgb(83,83,83)" />
	<circle cx="519" cy="223" r="2.29358" fill="rgb(118,118,118)" />
	<circle cx="140" cy="298" r="1.94553" fill="rgb(157,157,157)" />
	<circle cx="204" cy="19" r="4.58716" fill="rgb(9,9,9)" />
	<circle cx="250" cy="96" r="3.33333" fill="rgb(50,50,50)" />
	<circle cx="484" cy="113" r="3.14465" fill="rgb(59,59,59)" />
	<circle cx="111" cy="295" r="1.95312" fill="rgb(156,156,156)" />
	<circle cx="358" cy="366" r="1.70068" fill="rgb(194,194,194)" />
	<circle cx="133" cy="276" r="2.03252" fill="rgb(146,146,146)" />
	<circle cx="206" cy="255" r="2.13675" fill="rgb(134,134,134)" />
	<circle cx="501" cy="78" r="3.57143" fill="rgb(40,40,40)" />
	<circle cx="165" cy="104" r="3.24675" fill="rgb(54,54,54)" />
	<circle cx="589" cy="222" r="2.30415" fill="rgb(117,117,117)" />
	<circle cx="272" cy="31" r="4.34783" fill="rgb(15,15,15)" />
	<circle cx="481" cy="93" r="3.37838" fill="rgb(48,48,48)" />
	<circle cx="304" cy="52" r="3.96825" fill="rgb(26,26,26)" />
	<circle cx="528" cy="172" r="2.6178" fill="rgb(91,91,91)" />
	<circle cx="456" cy="320" r="1.85874" fill="rgb(169,169,169)" />
	<circle cx="489" cy="134" r="2.94118" fill="rgb(70,70,70)" />
	<circle cx="207" cy="374" r="1.67785" fill="rgb(198,198,198)" />
	<circle cx="243" cy="10" r="4.80769" fill="rgb(4,4,4)" />
	<circle cx="298" cy="422" r="1.53846" fill="rgb(225,225,225)" />
	<circle cx="115" cy="219" r="2.32558" fill="rgb(115,115,115)" />
	<circle cx="468" cy="420" r="1.54321" fill="rgb(224,224,224)" />
	<circle cx="150" cy="11" r="4.7619" fill="rgb(5,5,5)" />
	<circle cx="464" cy="223" r="2.30415" fill="rgb(117,117,117)" />
	<circle cx="135" cy="234" r="2.24215" fill="rgb(123,123,123)" />
	<circle cx="513" cy="335" r="1.80505" fill="rgb(177,177,177)" />
	<circle cx="190" cy="169" r="2.6455" fill="rgb(89,89,89)" />
	<circle cx="301" cy="291" r="1.97628" fill="rgb(153,153,153)" />
	<circle cx="264" cy="10" r="4.80769" fill="rgb(4,4,4)" />
	<circle cx="572" cy="186" r="2.52525" fill="rgb(98,98,98)" />
	<circle cx="47" cy="436" r="1.49254" fill="rgb(235,235,235)" />
	<circle cx="381" cy="220" r="2.31481" fill="rgb(116,116,116)" />
	<circle cx="462" cy="10" r="4.80769" fill="rgb(4,4,4)" />
	<circle cx="628" cy="10" r="4.80769" fill="rgb(4,4,4)" />
	<circle cx="147" cy="61" r="3.81679" fill="rgb(31,31,31)" />
	<circle cx="210" cy="36" r="4.23729" fill="rgb(18,18,18)" />
	<circle cx="527" cy="30" r="4.34783" fill="rgb(15,15,15)" />
	<circle cx="265" cy="233" r="2.24215" fill="rgb(123,123,123)" />
	<circle cx="106" cy="377" r="1.66667" fill="rgb(200,200,200)" />
	<circle cx="296" cy="268" r="2.07469" fill="rgb(141,141,141)" />
</svg>
